<svg width="30" height="116" viewBox="0 0 30 116" fill="none" xmlns="http://www.w3.org/2000/svg">
<g clip-path="url(#clip0)">
<path fillRule="evenodd" clipRule="evenodd" d="M0 116V0H30V116H0Z" fill="#1A252D"/>
<path fillRule="evenodd" clipRule="evenodd" d="M15 -16C16.1046 -16 17 -15.1046 17 -14V-7C17 -5.89543 16.1046 -5 15 -5C13.8954 -5 13 -5.89543 13 -7V-14C13 -15.1046 13.8954 -16 15 -16ZM15 0.333332C16.1046 0.333332 17 1.22876 17 2.33333V16.3333C17 17.4379 16.1046 18.3333 15 18.3333C13.8954 18.3333 13 17.4379 13 16.3333V2.33333C13 1.22876 13.8954 0.333332 15 0.333332ZM15 23.6667C16.1046 23.6667 17 24.5621 17 25.6667V39.6667C17 40.7712 16.1046 41.6667 15 41.6667C13.8954 41.6667 13 40.7712 13 39.6667V25.6667C13 24.5621 13.8954 23.6667 15 23.6667ZM15 47C16.1046 47 17 47.8954 17 49V63C17 64.1046 16.1046 65 15 65C13.8954 65 13 64.1046 13 63V49C13 47.8954 13.8954 47 15 47ZM15 70.3333C16.1046 70.3333 17 71.2288 17 72.3333V86.3333C17 87.4379 16.1046 88.3333 15 88.3333C13.8954 88.3333 13 87.4379 13 86.3333V72.3333C13 71.2288 13.8954 70.3333 15 70.3333ZM15 93.6667C16.1046 93.6667 17 94.5621 17 95.6667V109.667C17 110.771 16.1046 111.667 15 111.667C13.8954 111.667 13 110.771 13 109.667V95.6667C13 94.5621 13.8954 93.6667 15 93.6667ZM15 117C16.1046 117 17 117.895 17 119V126C17 127.105 16.1046 128 15 128C13.8954 128 13 127.105 13 126V119C13 117.895 13.8954 117 15 117Z" fill="#EFF3F5"/>
</g>
<defs>
<clipPath id="clip0">
<rect width="30" height="116" fill="white"/>
</clipPath>
</defs>
</svg>